# xmcd CD database file
#
# Track frame offsets:
#	150
#	16142
#	31895
#	57015
#	76887
#	97185
#	123642
#	142690
#	160102
#	181432
#
# Disc length: 2972 seconds
#
# Revision: 1
# Processed by: cddbd v1.5PL3 Copyright (c) Steve Scherf et al.
# Submitted via: CDex 1.51
#
DISCID=740b9a0a
DTITLE=BoA - PeaceB.REMIXIES
DYEAR=2002
DGENRE=
TTITLE0=Listen To My Heart[Akira's Un Momento Remix]
TTITLE1=Amazing Kiss[Thunderpuss Japanese Club Mix]
TTITLE2=Every Heart -ミンナノキモチ-[Groove That Soul Mix]
TTITLE3=Power[Masters OF Funk Remix]
TTITLE4=ID;Peace B[Shinichi Osawa Remix]
TTITLE5=Share Your Heart(With me)[Dub's Lovers Rock Remix]
TTITLE6=Don't Start now[Two Main Guys Mix]
TTITLE7=気持ちはつたわる[L12 Remix Featuring Rude Boy Face]
TTITLE8=Amazing Kiss[Tiny Voice, Production Remix]
TTITLE9=Listen To My Heart[Hex Hector Main Japanese Club Mix]
EXTD=YEAR: 2002
EXTT0=
EXTT1=
EXTT2=
EXTT3=
EXTT4=
EXTT5=
EXTT6=
EXTT7=
EXTT8=
EXTT9=
PLAYORDER=
